<svg width="143" height="52" viewBox="0 0 143 52" fill="none" xmlns="http://www.w3.org/2000/svg">
<rect x="0.706055" width="142.294" height="51.563" rx="4.70877" fill="black"/>
<path d="M38.4654 23.9879C38.4654 21.5796 39.6699 19.4389 41.6773 18.2348C40.4728 16.3617 38.3315 15.2913 36.1903 15.2913C33.9151 15.0237 31.64 16.6293 30.4355 16.6293C29.231 16.6293 27.3574 15.2913 25.4838 15.2913C22.8072 15.4251 20.532 16.763 19.3276 19.0375C16.6509 23.7203 18.6584 30.5438 21.2012 34.29C22.5395 36.1631 24.0116 38.17 25.8853 38.17C27.7589 38.0362 28.5619 36.9659 30.837 36.9659C33.1121 36.9659 33.7813 38.17 35.7888 38.17C37.7962 38.17 39.1345 36.2969 40.339 34.4238C41.2758 33.0859 41.945 31.6141 42.4803 30.1424C40.0713 29.0721 38.4654 26.6638 38.4654 23.9879Z" fill="white"/>
<path d="M34.7185 12.7497C35.7892 11.4117 36.4583 9.67242 36.3245 7.93311C34.5847 8.0669 32.9787 8.86966 31.9081 10.2076C30.8374 11.5455 30.1683 13.1511 30.3021 14.8904C31.9081 14.8904 33.6479 14.0876 34.7185 12.7497Z" fill="white"/>
<path d="M51.3659 13.2466H53.9595C54.5923 13.2466 55.1545 13.3709 55.6461 13.6195C56.1377 13.8625 56.5191 14.21 56.7904 14.6621C57.0616 15.1085 57.1972 15.6255 57.1972 16.2131C57.1972 16.8008 57.0616 17.3206 56.7904 17.7727C56.5191 18.2191 56.1377 18.5666 55.6461 18.8152C55.1545 19.0582 54.5923 19.1797 53.9595 19.1797H51.3659V13.2466ZM53.9086 18.2473C54.3437 18.2473 54.7251 18.1654 55.0528 18.0015C55.3862 17.832 55.6405 17.5947 55.8156 17.2896C55.9965 16.9788 56.0869 16.62 56.0869 16.2131C56.0869 15.8063 55.9965 15.4503 55.8156 15.1452C55.6405 14.8344 55.3862 14.5971 55.0528 14.4332C54.7251 14.2637 54.3437 14.1789 53.9086 14.1789H52.4677V18.2473H53.9086Z" fill="white"/>
<path d="M60.3008 19.239C59.8431 19.239 59.4306 19.1401 59.0633 18.9423C58.6961 18.7446 58.4079 18.4705 58.1988 18.1202C57.9954 17.7642 57.8937 17.363 57.8937 16.9166C57.8937 16.4702 57.9954 16.0719 58.1988 15.7215C58.4079 15.3712 58.6961 15.0972 59.0633 14.8994C59.4306 14.7016 59.8431 14.6027 60.3008 14.6027C60.7641 14.6027 61.1795 14.7016 61.5467 14.8994C61.914 15.0972 62.1994 15.3712 62.4028 15.7215C62.6119 16.0719 62.7164 16.4702 62.7164 16.9166C62.7164 17.363 62.6119 17.7642 62.4028 18.1202C62.1994 18.4705 61.914 18.7446 61.5467 18.9423C61.1795 19.1401 60.7641 19.239 60.3008 19.239ZM60.3008 18.3321C60.6907 18.3321 61.0128 18.2021 61.267 17.9422C61.5213 17.6823 61.6485 17.3404 61.6485 16.9166C61.6485 16.4928 61.5213 16.151 61.267 15.8911C61.0128 15.6311 60.6907 15.5012 60.3008 15.5012C59.9109 15.5012 59.5888 15.6311 59.3346 15.8911C59.0859 16.151 58.9616 16.4928 58.9616 16.9166C58.9616 17.3404 59.0859 17.6823 59.3346 17.9422C59.5888 18.2021 59.9109 18.3321 60.3008 18.3321Z" fill="white"/>
<path d="M70.6657 14.6536L68.996 19.1797H67.9789L66.8092 16.0606L65.6226 19.1797H64.6055L62.9443 14.6536H63.9444L65.1395 17.9931L66.3854 14.6536H67.2754L68.4959 18.01L69.7249 14.6536H70.6657Z" fill="white"/>
<path d="M73.9623 14.6027C74.533 14.6027 74.9907 14.7694 75.3354 15.1028C75.6801 15.4362 75.8524 15.9306 75.8524 16.5861V19.1797H74.7929V16.7217C74.7929 16.3261 74.6997 16.0295 74.5132 15.8317C74.3268 15.6283 74.0612 15.5266 73.7165 15.5266C73.3266 15.5266 73.0187 15.6453 72.7927 15.8826C72.5666 16.1143 72.4536 16.4505 72.4536 16.8912V19.1797H71.3942V14.6536H72.4028V15.2384C72.5779 15.0293 72.7983 14.8711 73.0639 14.7638C73.3295 14.6564 73.6289 14.6027 73.9623 14.6027Z" fill="white"/>
<path d="M77.1964 12.8906H78.2559V19.1797H77.1964V12.8906Z" fill="white"/>
<path d="M81.6806 19.239C81.223 19.239 80.8105 19.1401 80.4432 18.9423C80.0759 18.7446 79.7877 18.4705 79.5787 18.1202C79.3752 17.7642 79.2735 17.363 79.2735 16.9166C79.2735 16.4702 79.3752 16.0719 79.5787 15.7215C79.7877 15.3712 80.0759 15.0972 80.4432 14.8994C80.8105 14.7016 81.223 14.6027 81.6806 14.6027C82.144 14.6027 82.5593 14.7016 82.9266 14.8994C83.2939 15.0972 83.5792 15.3712 83.7826 15.7215C83.9917 16.0719 84.0962 16.4702 84.0962 16.9166C84.0962 17.363 83.9917 17.7642 83.7826 18.1202C83.5792 18.4705 83.2939 18.7446 82.9266 18.9423C82.5593 19.1401 82.144 19.239 81.6806 19.239ZM81.6806 18.3321C82.0705 18.3321 82.3926 18.2021 82.6469 17.9422C82.9012 17.6823 83.0283 17.3404 83.0283 16.9166C83.0283 16.4928 82.9012 16.151 82.6469 15.8911C82.3926 15.6311 82.0705 15.5012 81.6806 15.5012C81.2908 15.5012 80.9687 15.6311 80.7144 15.8911C80.4658 16.151 80.3415 16.4928 80.3415 16.9166C80.3415 17.3404 80.4658 17.6823 80.7144 17.9422C80.9687 18.2021 81.2908 18.3321 81.6806 18.3321Z" fill="white"/>
<path d="M86.7805 14.6027C87.4473 14.6027 87.9558 14.7638 88.3061 15.0859C88.6621 15.4023 88.8401 15.8826 88.8401 16.5267V19.1797H87.84V18.6287C87.71 18.8265 87.5235 18.9791 87.2806 19.0864C87.0432 19.1881 86.7551 19.239 86.416 19.239C86.077 19.239 85.7803 19.1825 85.5261 19.0695C85.2718 18.9508 85.074 18.7898 84.9328 18.5864C84.7972 18.3773 84.7294 18.1428 84.7294 17.8829C84.7294 17.476 84.8791 17.1511 85.1786 16.9081C85.4837 16.6595 85.9612 16.5352 86.611 16.5352H87.7806V16.4674C87.7806 16.151 87.6846 15.908 87.4925 15.7385C87.306 15.569 87.0263 15.4842 86.6534 15.4842C86.3991 15.4842 86.1476 15.5238 85.899 15.6029C85.656 15.682 85.4498 15.7922 85.2803 15.9334L84.865 15.1621C85.1023 14.9813 85.3876 14.8429 85.721 14.7468C86.0544 14.6508 86.4076 14.6027 86.7805 14.6027ZM86.6364 18.4677C86.902 18.4677 87.1365 18.4084 87.3399 18.2897C87.549 18.1654 87.6959 17.9902 87.7806 17.7642V17.2387H86.6873C86.077 17.2387 85.7719 17.4393 85.7719 17.8405C85.7719 18.0326 85.8482 18.1852 86.0007 18.2982C86.1533 18.4112 86.3652 18.4677 86.6364 18.4677Z" fill="white"/>
<path d="M94.674 12.8906V19.1797H93.6569V18.5948C93.4818 18.8096 93.2642 18.9706 93.0043 19.078C92.75 19.1853 92.4675 19.239 92.1567 19.239C91.7216 19.239 91.3289 19.1429 90.9786 18.9508C90.6339 18.7587 90.3627 18.4875 90.1649 18.1371C89.9671 17.7812 89.8683 17.3743 89.8683 16.9166C89.8683 16.4589 89.9671 16.0549 90.1649 15.7046C90.3627 15.3543 90.6339 15.083 90.9786 14.8909C91.3289 14.6988 91.7216 14.6027 92.1567 14.6027C92.4562 14.6027 92.7303 14.6536 92.9789 14.7553C93.2275 14.857 93.4394 15.0096 93.6146 15.213V12.8906H94.674ZM92.2839 18.3321C92.5381 18.3321 92.767 18.2756 92.9704 18.1626C93.1738 18.0439 93.3349 17.8772 93.4535 17.6625C93.5722 17.4478 93.6315 17.1992 93.6315 16.9166C93.6315 16.6341 93.5722 16.3855 93.4535 16.1708C93.3349 15.956 93.1738 15.7922 92.9704 15.6792C92.767 15.5605 92.5381 15.5012 92.2839 15.5012C92.0296 15.5012 91.8007 15.5605 91.5973 15.6792C91.3939 15.7922 91.2329 15.956 91.1142 16.1708C90.9955 16.3855 90.9362 16.6341 90.9362 16.9166C90.9362 17.1992 90.9955 17.4478 91.1142 17.6625C91.2329 17.8772 91.3939 18.0439 91.5973 18.1626C91.8007 18.2756 92.0296 18.3321 92.2839 18.3321Z" fill="white"/>
<path d="M100.437 19.239C99.979 19.239 99.5665 19.1401 99.1992 18.9423C98.8319 18.7446 98.5437 18.4705 98.3347 18.1202C98.1312 17.7642 98.0295 17.363 98.0295 16.9166C98.0295 16.4702 98.1312 16.0719 98.3347 15.7215C98.5437 15.3712 98.8319 15.0972 99.1992 14.8994C99.5665 14.7016 99.979 14.6027 100.437 14.6027C100.9 14.6027 101.315 14.7016 101.683 14.8994C102.05 15.0972 102.335 15.3712 102.539 15.7215C102.748 16.0719 102.852 16.4702 102.852 16.9166C102.852 17.363 102.748 17.7642 102.539 18.1202C102.335 18.4705 102.05 18.7446 101.683 18.9423C101.315 19.1401 100.9 19.239 100.437 19.239ZM100.437 18.3321C100.827 18.3321 101.149 18.2021 101.403 17.9422C101.657 17.6823 101.784 17.3404 101.784 16.9166C101.784 16.4928 101.657 16.151 101.403 15.8911C101.149 15.6311 100.827 15.5012 100.437 15.5012C100.047 15.5012 99.7247 15.6311 99.4704 15.8911C99.2218 16.151 99.0975 16.4928 99.0975 16.9166C99.0975 17.3404 99.2218 17.6823 99.4704 17.9422C99.7247 18.2021 100.047 18.3321 100.437 18.3321Z" fill="white"/>
<path d="M106.434 14.6027C107.004 14.6027 107.462 14.7694 107.807 15.1028C108.151 15.4362 108.324 15.9306 108.324 16.5861V19.1797H107.264V16.7217C107.264 16.3261 107.171 16.0295 106.984 15.8317C106.798 15.6283 106.532 15.5266 106.188 15.5266C105.798 15.5266 105.49 15.6453 105.264 15.8826C105.038 16.1143 104.925 16.4505 104.925 16.8912V19.1797H103.865V14.6536H104.874V15.2384C105.049 15.0293 105.27 14.8711 105.535 14.7638C105.801 14.6564 106.1 14.6027 106.434 14.6027Z" fill="white"/>
<path d="M114.731 18.9339C114.606 19.0356 114.454 19.1119 114.273 19.1627C114.098 19.2136 113.911 19.239 113.714 19.239C113.216 19.239 112.832 19.109 112.561 18.8491C112.29 18.5892 112.154 18.2106 112.154 17.7133V15.5351H111.408V14.6875H112.154V13.6534H113.214V14.6875H114.426V15.5351H113.214V17.6879C113.214 17.9083 113.267 18.0778 113.375 18.1965C113.482 18.3095 113.637 18.366 113.841 18.366C114.078 18.366 114.276 18.3038 114.434 18.1795L114.731 18.9339Z" fill="white"/>
<path d="M118.171 14.6027C118.741 14.6027 119.199 14.7694 119.544 15.1028C119.888 15.4362 120.061 15.9306 120.061 16.5861V19.1797H119.001V16.7217C119.001 16.3261 118.908 16.0295 118.721 15.8317C118.535 15.6283 118.269 15.5266 117.925 15.5266C117.535 15.5266 117.227 15.6453 117.001 15.8826C116.775 16.1143 116.662 16.4505 116.662 16.8912V19.1797H115.602V12.8906H116.662V15.1791C116.837 14.9926 117.052 14.8514 117.306 14.7553C117.566 14.6536 117.854 14.6027 118.171 14.6027Z" fill="white"/>
<path d="M125.701 16.9421C125.701 17.0155 125.695 17.12 125.684 17.2557H122.133C122.195 17.589 122.356 17.8546 122.616 18.0524C122.881 18.2445 123.209 18.3406 123.599 18.3406C124.096 18.3406 124.506 18.1767 124.828 17.849L125.396 18.5016C125.192 18.7446 124.935 18.9282 124.624 19.0525C124.314 19.1768 123.963 19.239 123.573 19.239C123.076 19.239 122.638 19.1401 122.26 18.9423C121.881 18.7446 121.587 18.4705 121.378 18.1202C121.175 17.7642 121.073 17.363 121.073 16.9166C121.073 16.4759 121.172 16.0803 121.37 15.73C121.573 15.374 121.853 15.0972 122.209 14.8994C122.565 14.7016 122.966 14.6027 123.412 14.6027C123.853 14.6027 124.246 14.7016 124.591 14.8994C124.941 15.0915 125.212 15.3656 125.404 15.7215C125.602 16.0719 125.701 16.4787 125.701 16.9421ZM123.412 15.4503C123.073 15.4503 122.785 15.552 122.548 15.7554C122.316 15.9532 122.175 16.2188 122.124 16.5522H124.692C124.647 16.2244 124.509 15.9589 124.277 15.7554C124.045 15.552 123.757 15.4503 123.412 15.4503Z" fill="white"/>
<path d="M56.2804 32.4994H51.5638L50.6671 35.1895H47.8066L52.6667 22.1337H55.1595L60.0465 35.1895H57.186L56.2804 32.4994ZM52.2901 30.3205H55.554L53.9131 25.4335L52.2901 30.3205Z" fill="white"/>
<path d="M69.3989 30.4281C69.3989 31.9225 69.0582 33.1211 68.3767 34.0238C67.7012 34.9205 66.7866 35.3688 65.6328 35.3688C64.6525 35.3688 63.8604 35.0281 63.2566 34.3466V38.9197H60.6652V25.4873H63.0683L63.158 26.4378C63.7857 25.6846 64.6046 25.308 65.6149 25.308C66.8105 25.308 67.7401 25.7503 68.4036 26.6351C69.0672 27.5198 69.3989 28.7393 69.3989 30.2936V30.4281ZM66.8075 30.2398C66.8075 29.3371 66.6461 28.6407 66.3233 28.1505C66.0065 27.6603 65.5432 27.4152 64.9334 27.4152C64.1204 27.4152 63.5615 27.726 63.2566 28.3477V32.3201C63.5734 32.9597 64.1384 33.2795 64.9514 33.2795C66.1888 33.2795 66.8075 32.2663 66.8075 30.2398Z" fill="white"/>
<path d="M79.7467 30.4281C79.7467 31.9225 79.406 33.1211 78.7245 34.0238C78.049 34.9205 77.1344 35.3688 75.9806 35.3688C75.0003 35.3688 74.2082 35.0281 73.6044 34.3466V38.9197H71.013V25.4873H73.4161L73.5058 26.4378C74.1335 25.6846 74.9524 25.308 75.9627 25.308C77.1583 25.308 78.0879 25.7503 78.7514 26.6351C79.415 27.5198 79.7467 28.7393 79.7467 30.2936V30.4281ZM77.1553 30.2398C77.1553 29.3371 76.9939 28.6407 76.6711 28.1505C76.3543 27.6603 75.891 27.4152 75.2812 27.4152C74.4682 27.4152 73.9093 27.726 73.6044 28.3477V32.3201C73.9212 32.9597 74.4862 33.2795 75.2992 33.2795C76.5366 33.2795 77.1553 32.2663 77.1553 30.2398Z" fill="white"/>
<path d="M92.8743 31.7641C92.8743 31.256 92.6949 30.8674 92.3363 30.5984C91.9776 30.3234 91.332 30.0365 90.3994 29.7376C89.4669 29.4327 88.7286 29.1338 88.1846 28.8409C86.7021 28.0399 85.9608 26.9609 85.9608 25.6039C85.9608 24.8985 86.1581 24.2708 86.5526 23.7208C86.9531 23.1649 87.524 22.7315 88.2653 22.4206C89.0125 22.1098 89.8494 21.9543 90.776 21.9543C91.7086 21.9543 92.5395 22.1247 93.2688 22.4655C93.9981 22.8002 94.563 23.2755 94.9636 23.8912C95.3701 24.5069 95.5733 25.2063 95.5733 25.9894H92.8832C92.8832 25.3917 92.6949 24.9284 92.3183 24.5996C91.9417 24.2648 91.4127 24.0974 90.7312 24.0974C90.0736 24.0974 89.5625 24.2379 89.1979 24.5189C88.8332 24.7939 88.6509 25.1585 88.6509 25.6128C88.6509 26.0373 88.8631 26.393 89.2875 26.6799C89.7179 26.9668 90.3486 27.2358 91.1795 27.4869C92.7099 27.9472 93.8248 28.5181 94.5242 29.1996C95.2236 29.8811 95.5733 30.7299 95.5733 31.7462C95.5733 32.876 95.1459 33.7638 94.2911 34.4094C93.4362 35.049 92.2855 35.3688 90.8388 35.3688C89.8345 35.3688 88.9199 35.1865 88.0949 34.8218C87.27 34.4512 86.6393 33.9461 86.2029 33.3064C85.7725 32.6668 85.5573 31.9255 85.5573 31.0826H88.2563C88.2563 32.5233 89.1171 33.2437 90.8388 33.2437C91.4784 33.2437 91.9776 33.1151 92.3363 32.8581C92.6949 32.5951 92.8743 32.2304 92.8743 31.7641Z" fill="white"/>
<path d="M100.335 23.1021V25.4873H101.994V27.3883H100.335V32.2304C100.335 32.5891 100.403 32.8461 100.541 33.0016C100.678 33.157 100.942 33.2347 101.33 33.2347C101.617 33.2347 101.871 33.2138 102.092 33.1719V35.1357C101.584 35.2911 101.061 35.3688 100.523 35.3688C98.7058 35.3688 97.7792 34.4512 97.7433 32.616V27.3883H96.3265V25.4873H97.7433V23.1021H100.335Z" fill="white"/>
<path d="M102.765 30.2487C102.765 29.2863 102.95 28.4284 103.321 27.6752C103.691 26.922 104.223 26.3392 104.917 25.9267C105.616 25.5142 106.426 25.308 107.347 25.308C108.656 25.308 109.723 25.7085 110.548 26.5095C111.379 27.3106 111.842 28.3986 111.938 29.7735L111.956 30.437C111.956 31.9255 111.54 33.1211 110.709 34.0238C109.879 34.9205 108.764 35.3688 107.365 35.3688C105.966 35.3688 104.848 34.9205 104.011 34.0238C103.18 33.1271 102.765 31.9076 102.765 30.3653V30.2487ZM105.356 30.437C105.356 31.3576 105.53 32.063 105.876 32.5532C106.223 33.0374 106.719 33.2795 107.365 33.2795C107.992 33.2795 108.483 33.0404 108.835 32.5622C109.188 32.078 109.364 31.3068 109.364 30.2487C109.364 29.3461 109.188 28.6466 108.835 28.1505C108.483 27.6543 107.986 27.4062 107.347 27.4062C106.713 27.4062 106.223 27.6543 105.876 28.1505C105.53 28.6407 105.356 29.4028 105.356 30.437Z" fill="white"/>
<path d="M119.004 27.9173C118.651 27.8695 118.34 27.8456 118.071 27.8456C117.091 27.8456 116.448 28.1774 116.143 28.8409V35.1895H113.552V25.4873H116L116.072 26.644C116.592 25.7533 117.312 25.308 118.233 25.308C118.52 25.308 118.789 25.3468 119.04 25.4245L119.004 27.9173Z" fill="white"/>
<path d="M124.545 35.3688C123.123 35.3688 121.963 34.9324 121.066 34.0597C120.176 33.1869 119.73 32.0242 119.73 30.5715V30.3205C119.73 29.3461 119.918 28.4763 120.295 27.7111C120.672 26.9399 121.204 26.3481 121.891 25.9356C122.585 25.5172 123.374 25.308 124.258 25.308C125.586 25.308 126.629 25.7264 127.388 26.5633C128.153 27.4002 128.536 28.5869 128.536 30.1232V31.1813H122.357C122.441 31.8149 122.692 32.3231 123.111 32.7057C123.535 33.0882 124.07 33.2795 124.716 33.2795C125.714 33.2795 126.494 32.9179 127.056 32.1945L128.329 33.6203C127.941 34.1702 127.415 34.6007 126.751 34.9115C126.088 35.2164 125.352 35.3688 124.545 35.3688ZM124.249 27.4062C123.735 27.4062 123.317 27.5796 122.994 27.9263C122.677 28.273 122.474 28.7692 122.384 29.4148H125.989V29.2086C125.977 28.6347 125.822 28.1923 125.523 27.8815C125.224 27.5646 124.799 27.4062 124.249 27.4062Z" fill="white"/>
</svg>
